<svg width="409.24000244140626px" height="118.439990234375px" xmlns="http://www.w3.org/2000/svg" viewBox="45.37999877929687 15.780004882812499 409.24000244140626 118.439990234375" style="background: rgba(0, 0, 0, 0) none repeat scroll 0% 0%;" preserveAspectRatio="xMidYMid"><defs><filter id="editing-hover" x="-100%" y="-100%" width="300%" height="300%"><feFlood flood-color="#787878" result="flood"></feFlood><feComposite operator="in" in2="SourceAlpha" in="flood" result="shadow"></feComposite><feOffset dx="-1.9" dy="-2" in="SourceGraphic" result="offset-1"></feOffset><feOffset dx="1.9" dy="2" in="shadow" result="offset-2"></feOffset><feMerge><feMergeNode in="offset-2"></feMergeNode><feMergeNode in="offset-1"></feMergeNode></feMerge></filter></defs><g filter="url(#editing-hover)"><g transform="translate(107.50500965118408, 98.58500099182129)"><path d="M26.62-44.80L26.62-44.80Q38.02-44.80 44.22-38.98L44.22-38.98L44.22-38.98Q50.43-33.15 50.43-22.02L50.43-22.02L50.43-22.02Q50.43-10.88 44.22-5.06L44.22-5.06L44.22-5.06Q38.02 0.77 26.62 0.77L26.62 0.77L26.62 0.77Q15.23 0.77 9.06-5.02L9.06-5.02L9.06-5.02Q2.88-10.82 2.88-22.02L2.88-22.02L2.88-22.02Q2.88-33.22 9.06-39.01L9.06-39.01L9.06-39.01Q15.23-44.80 26.62-44.80L26.62-44.80ZM26.62-34.24L26.62-34.24Q22.08-34.24 19.71-31.49L19.71-31.49L19.71-31.49Q17.34-28.74 17.34-24.06L17.34-24.06L17.34-19.97L17.34-19.97Q17.34-15.30 19.71-12.54L19.71-12.54L19.71-12.54Q22.08-9.79 26.62-9.79L26.62-9.79L26.62-9.79Q31.17-9.79 33.57-12.54L33.57-12.54L33.57-12.54Q35.97-15.30 35.97-19.97L35.97-19.97L35.97-24.06L35.97-24.06Q35.97-28.74 33.57-31.49L33.57-31.49L33.57-31.49Q31.17-34.24 26.62-34.24L26.62-34.24ZM99.84-30.53L99.84-30.53Q99.84-26.50 97.66-23.23L97.66-23.23L97.66-23.23Q95.49-19.97 91.33-18.43L91.33-18.43L101.12 0L85.25 0L77.44-16.06L72.19-16.06L72.19 0L58.05 0L58.05-44.03L84.99-44.03L84.99-44.03Q89.73-44.03 93.09-42.21L93.09-42.21L93.09-42.21Q96.45-40.38 98.14-37.28L98.14-37.28L98.14-37.28Q99.84-34.18 99.84-30.53L99.84-30.53ZM85.44-29.95L85.44-29.95Q85.44-31.68 84.29-32.83L84.29-32.83L84.29-32.83Q83.14-33.98 81.47-33.98L81.47-33.98L72.19-33.98L72.19-25.86L81.47-25.86L81.47-25.86Q83.14-25.86 84.29-27.04L84.29-27.04L84.29-27.04Q85.44-28.22 85.44-29.95L85.44-29.95ZM126.34-44.80L126.34-44.80Q134.78-44.80 140.22-41.38L140.22-41.38L140.22-41.38Q145.66-37.95 145.79-31.23L145.79-31.23L145.79-30.46L132.54-30.46L132.54-30.72L132.54-30.72Q132.54-32.64 131.14-33.92L131.14-33.92L131.14-33.92Q129.73-35.20 126.85-35.20L126.85-35.20L126.85-35.20Q124.03-35.20 122.53-34.37L122.53-34.37L122.53-34.37Q121.02-33.54 121.02-32.32L121.02-32.32L121.02-32.32Q121.02-30.59 123.07-29.76L123.07-29.76L123.07-29.76Q125.12-28.93 129.66-28.03L129.66-28.03L129.66-28.03Q134.98-26.94 138.40-25.76L138.40-25.76L138.40-25.76Q141.82-24.58 144.38-21.89L144.38-21.89L144.38-21.89Q146.94-19.20 147.01-14.59L147.01-14.59L147.01-14.59Q147.01-6.78 141.73-3.01L141.73-3.01L141.73-3.01Q136.45 0.77 127.62 0.77L127.62 0.77L127.62 0.77Q117.31 0.77 111.58-2.69L111.58-2.69L111.58-2.69Q105.86-6.14 105.86-14.91L105.86-14.91L119.23-14.91L119.23-14.91Q119.23-11.58 120.96-10.46L120.96-10.46L120.96-10.46Q122.69-9.34 126.34-9.34L126.34-9.34L126.34-9.34Q129.02-9.34 130.78-9.92L130.78-9.92L130.78-9.92Q132.54-10.50 132.54-12.29L132.54-12.29L132.54-12.29Q132.54-13.89 130.59-14.69L130.59-14.69L130.59-14.69Q128.64-15.49 124.22-16.38L124.22-16.38L124.22-16.38Q118.85-17.54 115.33-18.78L115.33-18.78L115.33-18.78Q111.81-20.03 109.18-22.91L109.18-22.91L109.18-22.91Q106.56-25.79 106.56-30.72L106.56-30.72L106.56-30.72Q106.56-37.95 112.16-41.38L112.16-41.38L112.16-41.38Q117.76-44.80 126.34-44.80L126.34-44.80ZM188.10 0L177.66 0L176.83-5.12L176.83-5.12Q174.85-2.37 171.62-0.80L171.62-0.80L171.62-0.80Q168.38 0.77 164.80 0.77L164.80 0.77L164.80 0.77Q158.91 0.77 155.97-2.50L155.97-2.50L155.97-2.50Q153.02-5.76 153.02-11.90L153.02-11.90L153.02-33.79L165.76-33.79L165.76-13.44L165.76-13.44Q165.76-11.26 166.88-9.95L166.88-9.95L166.88-9.95Q168-8.64 170.05-8.64L170.05-8.64L170.05-8.64Q172.42-8.64 173.89-10.18L173.89-10.18L173.89-10.18Q175.36-11.71 175.36-13.95L175.36-13.95L175.36-33.79L188.10-33.79L188.10 0ZM209.02-37.76L196.29-37.76L196.29-46.40L209.02-46.40L209.02-37.76ZM209.02 0L196.29 0L196.29-33.79L209.02-33.79L209.02 0ZM232.51-33.79L239.68-33.79L239.68-25.15L232.51-25.15L232.51-12.29L232.51-12.29Q232.51-9.98 233.28-8.93L233.28-8.93L233.28-8.93Q234.05-7.87 236.10-7.87L236.10-7.87L239.68-7.87L239.68-0.38L239.68-0.38Q238.14 0.13 235.71 0.45L235.71 0.45L235.71 0.45Q233.28 0.77 231.49 0.77L231.49 0.77L231.49 0.77Q225.86 0.77 222.82-1.28L222.82-1.28L222.82-1.28Q219.78-3.33 219.78-8.26L219.78-8.26L219.78-25.15L215.04-25.15L215.04-33.79L220.29-33.79L223.04-44.03L232.51-44.03L232.51-33.79ZM263.04-34.56L263.04-34.56Q272.32-34.56 277.22-30.21L277.22-30.21L277.22-30.21Q282.11-25.86 282.11-16.90L282.11-16.90L282.11-14.72L256.77-14.72L256.77-14.72Q256.77-11.07 258.40-9.22L258.40-9.22L258.40-9.22Q260.03-7.36 263.55-7.36L263.55-7.36L263.55-7.36Q266.75-7.36 268.26-8.70L268.26-8.70L268.26-8.70Q269.76-10.05 269.76-12.29L269.76-12.29L282.11-12.29L282.11-12.29Q282.11-6.14 277.44-2.69L277.44-2.69L277.44-2.69Q272.77 0.77 263.81 0.77L263.81 0.77L263.81 0.77Q254.40 0.77 249.22-3.62L249.22-3.62L249.22-3.62Q244.03-8 244.03-16.90L244.03-16.90L244.03-16.90Q244.03-25.60 249.09-30.08L249.09-30.08L249.09-30.08Q254.14-34.56 263.04-34.56L263.04-34.56ZM263.55-26.43L263.55-26.43Q257.54-26.43 256.83-20.74L256.83-20.74L269.25-20.74L269.25-20.74Q269.25-23.36 267.74-24.90L267.74-24.90L267.74-24.90Q266.24-26.43 263.55-26.43L263.55-26.43Z" fill="#b31b1b"></path></g></g><style>text {
  font-size: 64px;
  font-family: Arial Black;
  dominant-baseline: central;
  text-anchor: middle;
}</style></svg>